<mxfile host="app.diagrams.net" modified="2023-06-16T06:03:12.399Z" agent="Mozilla/5.0 (Windows NT 10.0; Win64; x64) AppleWebKit/537.36 (KHTML, like Gecko) Chrome/114.0.0.0 Safari/537.36" version="21.4.0" etag="t3MYuE8tSpQe52h7Y1mj" type="github">
  <diagram name="Page-1" id="fNupgxqeZVjDXU8P_SAr">
    <mxGraphModel>
      <root>
        <mxCell id="0" />
        <mxCell id="1" parent="0" />
      </root>
    </mxGraphModel>
  </diagram>
</mxfile>
